<?xml version="1.0" standalone="no"?>
<!DOCTYPE svg PUBLIC "-//W3C//DTD SVG 20010904//EN"
 "http://www.w3.org/TR/2001/REC-SVG-20010904/DTD/svg10.dtd">
<svg version="1.0" xmlns="http://www.w3.org/2000/svg"
 width="300.000000pt" height="300.000000pt" viewBox="0 0 300.000000 300.000000"
 preserveAspectRatio="xMidYMid meet">
<metadata>
Created by potrace 1.10, written by Peter Selinger 2001-2011
</metadata>
<g transform="translate(0.000000,300.000000) scale(0.100000,-0.100000)"
fill="#000000" stroke="none">
<path d="M1370 2863 c-222 -24 -481 -118 -625 -227 -20 -15 -19 -15 5 -13 34
3 122 56 114 69 -4 6 -1 9 7 6 8 -3 41 7 75 22 109 49 99 57 96 -78 -2 -64 0
-127 5 -139 5 -13 8 35 8 120 0 82 -4 146 -10 150 -6 5 -3 7 7 4 9 -3 60 3
114 14 53 11 118 19 143 17 l46 -3 -35 -22 c-51 -32 -157 -142 -207 -215 -59
-87 -54 -97 6 -12 71 102 125 159 197 210 59 42 67 45 107 39 55 -8 159 -42
182 -59 17 -12 15 -14 -19 -20 -110 -21 -296 -101 -431 -187 -50 -31 -63 -44
-53 -51 10 -8 10 -9 -2 -5 -8 2 -23 0 -33 -5 -13 -7 -25 -3 -48 16 -38 33
-143 91 -189 105 -19 5 -54 12 -77 15 -39 4 -46 1 -115 -58 -251 -215 -402
-473 -464 -792 -22 -111 -24 -357 -5 -464 21 -116 87 -306 140 -405 27 -49 53
-89 58 -88 18 4 109 -93 136 -146 16 -29 31 -51 33 -48 3 3 -6 23 -20 44 -14
20 -26 41 -26 45 0 5 31 -8 69 -27 115 -59 281 -105 375 -105 27 0 35 -6 50
-37 44 -92 141 -215 210 -265 l39 -28 -29 0 c-43 0 -181 35 -239 61 -124 54
-287 163 -361 241 -32 35 -62 62 -66 61 -8 -3 -100 105 -136 160 -14 20 -27
35 -30 33 -9 -10 94 -142 170 -218 169 -167 360 -282 573 -343 482 -139 977
-13 1331 340 256 255 394 588 394 951 0 190 -30 334 -110 529 -212 521 -797
868 -1360 808z m55 -23 c-29 -12 -74 -20 -107 -20 -31 0 -91 -7 -134 -15 -43
-8 -79 -13 -82 -11 -7 7 181 47 263 55 115 12 115 12 60 -9z m393 -24 c92 -23
308 -104 299 -112 -1 -2 -32 7 -67 19 -56 18 -89 21 -245 23 -172 1 -182 2
-235 27 -30 15 -74 29 -98 33 -54 8 -62 20 -20 33 56 18 251 5 366 -23z m162
-90 c124 -23 188 -52 248 -114 55 -58 105 -150 117 -215 l8 -38 -80 39 c-109
55 -246 99 -392 126 l-123 22 -18 53 c-11 33 -32 67 -56 90 l-37 36 27 -34
c30 -38 55 -83 66 -120 l7 -26 -125 3 c-142 4 -286 -10 -415 -40 -49 -11 -91
-18 -94 -15 -6 7 165 108 237 139 214 95 439 128 630 94z m-1180 -76 c-14 -11
-29 -20 -35 -20 -5 0 4 9 20 20 38 25 48 25 15 0z m1549 -105 c151 -125 287
-302 358 -464 46 -106 41 -118 -14 -36 -59 88 -179 207 -264 263 -59 38 -67
47 -71 80 -8 58 -48 141 -96 200 -54 67 -31 55 87 -43z m-1701 -22 c-41 -43
-83 -93 -94 -111 -10 -18 -37 -44 -59 -58 -22 -15 -53 -38 -69 -53 l-29 -26
21 30 c66 95 266 294 296 295 5 0 -24 -35 -66 -77z m261 26 c42 -22 87 -49
101 -59 l25 -20 -86 0 c-129 0 -261 -26 -383 -76 -29 -11 60 102 126 161 50
45 55 47 97 41 24 -3 78 -24 120 -47z m811 -15 l32 -7 -6 -53 c-9 -81 -44
-167 -65 -160 -9 3 -81 28 -161 55 -153 53 -261 78 -363 86 -46 4 -33 0 48
-15 132 -24 247 -56 383 -106 l101 -38 -17 -30 c-9 -16 -54 -68 -99 -115 l-82
-85 -179 175 c-98 96 -194 183 -213 193 -40 22 -45 27 104 -104 106 -92 267
-256 267 -270 0 -19 -254 -150 -289 -150 -23 0 -128 525 -109 547 12 15 164
50 293 67 108 15 303 20 355 10z m205 -30 c105 -21 250 -70 345 -117 l85 -42
-1 -82 c-1 -91 -13 -144 -56 -250 l-30 -72 -61 51 c-109 91 -372 253 -495 304
-1 1 9 35 23 77 14 42 25 94 25 117 l0 41 48 -6 c26 -4 79 -13 117 -21z m-889
-62 c15 -13 23 -38 32 -102 10 -71 60 -308 87 -412 6 -25 4 -28 -32 -37 -125
-34 -263 -42 -263 -16 0 8 15 74 34 147 35 133 86 279 126 358 20 38 20 44 6
58 -14 14 -22 13 -88 -12 -139 -54 -292 -145 -402 -239 l-59 -51 8 59 c8 66
39 158 58 172 22 17 120 52 187 67 134 30 275 34 306 8z m-23 -8 c11 -4 7 -22
-23 -92 -52 -121 -96 -258 -123 -380 l-22 -103 -45 6 c-58 9 -127 32 -167 57
l-32 19 36 57 c65 102 166 225 273 331 58 58 87 91 65 74 -100 -77 -293 -301
-356 -413 -13 -22 -26 -40 -30 -40 -13 0 -61 64 -80 105 -29 64 -25 76 44 132
123 100 272 185 444 252 1 1 8 -1 16 -5z m-506 -111 c-42 -82 -45 -195 -9
-275 40 -90 150 -165 277 -189 33 -7 61 -13 63 -14 1 -1 -5 -60 -14 -131 -10
-82 -16 -203 -16 -331 0 -112 -2 -203 -3 -203 -1 0 -41 7 -88 15 -99 17 -209
55 -275 94 l-47 28 3 52 c6 110 98 387 169 508 14 24 23 47 19 50 -8 9 -109
-207 -141 -302 -15 -44 -37 -129 -49 -189 l-22 -108 -56 60 c-59 64 -97 135
-117 214 -10 41 -8 56 10 110 41 120 106 228 207 348 l56 65 -48 -45 c-81 -77
-172 -219 -221 -347 l-15 -38 4 70 c9 123 97 358 174 462 31 42 125 123 143
123 5 0 3 -12 -4 -27z m1968 -64 c74 -56 157 -145 213 -226 27 -40 51 -71 53
-68 6 6 9 -26 9 -125 1 -99 -23 -201 -70 -307 l-32 -72 -25 47 c-60 114 -189
279 -291 374 l-59 54 20 39 c40 79 68 180 74 268 l6 87 26 -16 c14 -9 49 -34
76 -55z m-683 -15 c152 -76 277 -158 447 -292 l24 -19 -53 -79 c-48 -72 -278
-314 -299 -314 -4 0 -50 56 -100 125 -96 130 -275 350 -304 373 -14 12 -8 22
66 95 45 45 91 99 102 120 11 20 21 37 22 37 2 0 44 -21 95 -46z m-221 -294
c87 -101 319 -406 319 -419 0 -12 -130 -96 -233 -150 -116 -62 -277 -126 -287
-114 -17 18 -190 583 -190 620 0 7 6 13 13 13 19 0 205 93 247 124 19 14 38
24 42 23 4 -1 44 -45 89 -97z m802 -130 c100 -104 174 -201 234 -308 l35 -63
-55 -82 c-70 -105 -156 -202 -265 -299 -48 -43 -89 -78 -92 -78 -3 0 -23 35
-44 78 -50 100 -133 243 -213 362 l-63 95 48 39 c84 70 210 207 259 282 26 40
51 74 54 74 4 0 50 -45 102 -100z m-1169 -72 c35 -127 132 -436 150 -479 13
-31 -281 -89 -451 -89 l-85 0 5 248 c2 136 10 286 17 333 l12 86 102 6 c55 3
124 13 151 21 28 8 52 15 55 15 3 1 23 -63 44 -141z m1615 -65 c25 -205 -4
-457 -70 -608 l-18 -40 0 91 c-1 94 -33 235 -67 293 -17 29 -16 24 23 -89 23
-65 26 -93 27 -205 1 -110 -2 -135 -17 -158 -10 -15 -15 -31 -13 -36 6 -9 -79
-154 -127 -216 -37 -48 -198 -215 -207 -215 -3 0 -4 17 -1 38 5 32 16 48 66
89 102 85 205 201 249 278 17 30 17 30 -1 5 -60 -82 -145 -175 -221 -243 l-87
-78 -7 47 c-9 63 -42 168 -82 263 l-34 80 63 51 c83 67 219 210 276 291 110
153 169 299 190 459 l12 95 18 -52 c9 -28 22 -91 28 -140z m-2615 -131 c22
-65 82 -158 130 -200 l38 -33 -1 -132 c-2 -145 15 -257 54 -365 l24 -65 -55
54 c-64 64 -120 166 -162 299 -50 157 -62 245 -60 430 2 107 5 147 9 114 4
-28 14 -74 23 -102z m1745 -106 c70 -103 148 -233 215 -358 l57 -106 -98 -65
c-54 -36 -136 -85 -183 -110 -86 -47 -301 -137 -325 -137 -15 0 -92 174 -180
410 l-63 165 86 32 c119 45 252 114 352 182 47 32 86 59 87 60 1 0 25 -32 52
-73z m-1498 -176 c70 -39 184 -75 286 -91 l80 -12 7 -67 c13 -140 78 -396 123
-483 8 -16 12 -31 9 -34 -9 -10 -169 18 -251 44 -44 13 -108 40 -143 59 -35
19 -69 31 -75 28 -7 -4 -9 -3 -4 1 4 5 0 16 -8 25 -22 24 -63 153 -80 249 -16
90 -21 311 -7 311 5 0 33 -14 63 -30z m919 -41 c0 -18 99 -277 162 -423 45
-104 56 -141 47 -147 -20 -12 -168 -47 -270 -64 -52 -8 -149 -15 -216 -15
l-122 0 -29 78 c-52 134 -93 305 -107 445 l-7 67 95 0 c97 0 285 28 367 54 56
18 80 19 80 5z m894 -355 c43 -109 79 -243 74 -276 -4 -30 -114 -104 -273
-183 -135 -67 -241 -109 -256 -99 -17 10 -82 116 -139 226 l-58 112 100 38
c142 53 286 128 403 207 55 38 102 69 105 70 3 0 23 -42 44 -95z m-604 -341
c34 -64 79 -142 101 -172 l39 -56 -42 -13 c-97 -29 -246 -53 -362 -59 l-123
-6 -45 31 c-83 57 -168 158 -222 262 l-24 45 122 2 c126 2 304 29 416 62 36
10 68 19 72 20 3 0 34 -52 68 -116z m680 7 c0 -41 -27 -73 -104 -125 -92 -60
-168 -99 -274 -140 l-73 -28 -29 21 c-39 29 -52 27 -16 -2 l29 -24 -69 -15
c-161 -37 -351 -47 -446 -24 l-53 12 55 2 c153 7 378 50 506 97 146 53 364
166 434 225 31 26 40 26 40 1z m-1064 -328 c-2 -1 -23 1 -47 5 -37 6 -40 8
-19 13 21 5 74 -9 66 -18z"/>
<path d="M88 82 c-80 -3 -88 -5 -88 -22 0 -19 7 -20 125 -20 124 0 125 0 125
23 0 26 7 25 -162 19z m142 -22 c0 -5 -41 -9 -90 -9 -50 0 -90 4 -90 8 0 5 40
9 90 9 50 1 90 -3 90 -8z"/>
</g>
</svg>
